<?xml version="1.0" encoding="UTF-8" standalone="no"?>
<!DOCTYPE svg PUBLIC "-//W3C//DTD SVG 1.1//EN" "http://www.w3.org/Graphics/SVG/1.1/DTD/svg11.dtd">
<svg width="100%" height="100%" viewBox="0 0 705 456" version="1.1" xmlns="http://www.w3.org/2000/svg" xmlns:xlink="http://www.w3.org/1999/xlink" xml:space="preserve" xmlns:serif="http://www.serif.com/" style="fill-rule:evenodd;clip-rule:evenodd;stroke-linejoin:round;stroke-miterlimit:2;">
    <g transform="matrix(1,0,0,1,-2310.37,-1701.93)">
        <g transform="matrix(1,0,0,1,938.433,264.356)">
            <g transform="matrix(0.931369,0,0,0.931369,457.749,637.766)">
                <path d="M1115.96,1309.21C1108.25,1316.41 1099.98,1323.12 1091.45,1328.47C1060.01,1348.17 1025.97,1351.77 997.121,1320.29C986.836,1309.07 980.975,1292 981.597,1269.75C982.255,1246.21 990.157,1215.12 1003,1180.57C1012.58,1154.77 1024.93,1126.8 1038.52,1098.59C1013.78,1086.82 997.747,1065.86 1000.05,1031.98C1001,1018.06 1013.07,1007.52 1027,1008.47C1040.93,1009.41 1051.46,1021.49 1050.52,1035.41C1049.89,1044.62 1054.59,1049.88 1061.25,1053.22C1108.25,962.658 1159.74,880.451 1163.95,872.367C1170.39,859.984 1185.67,855.161 1198.06,861.603C1210.44,868.046 1215.26,883.33 1208.82,895.714C1204.89,903.267 1158.77,976.65 1114.46,1060.32C1132.44,1059.55 1147.61,1056.81 1151.92,1055.91C1165.58,1053.05 1179,1061.82 1181.86,1075.48C1184.72,1089.14 1175.95,1102.56 1162.29,1105.42C1154.8,1106.99 1121.87,1112.4 1088.93,1110.32C1074.15,1140.5 1060.66,1170.6 1050.41,1198.19C1041.48,1222.24 1035.02,1244.17 1032.86,1262.21C1032.15,1268.09 1031.91,1273.46 1032.35,1278.21C1032.66,1281.43 1032.74,1284.29 1034.41,1286.12C1043.61,1296.15 1054.56,1291.89 1064.58,1285.61C1091.77,1268.57 1115.09,1233.46 1119.2,1226.84C1119.89,1225.72 1120.66,1224.67 1121.49,1223.7C1143.62,1148.35 1175.37,1124.41 1197.85,1116.65C1215.27,1110.64 1234.29,1114.17 1240.83,1115.71C1241.59,1115.8 1242.34,1115.91 1243.09,1116.07L1254,1119.9L1263.24,1126.38L1270.1,1134.39C1271.85,1136.97 1273.43,1139.83 1274.79,1142.96C1283.04,1161.86 1282.67,1195.6 1273.89,1230.26C1270.04,1245.45 1264.76,1260.84 1258.49,1275C1262.27,1272.76 1266.67,1271.47 1271.38,1271.47C1285.34,1271.47 1296.67,1282.81 1296.67,1296.76L1296.67,1296.91C1297.09,1297.06 1297.56,1297.2 1297.92,1297.28C1299.43,1297.6 1301.07,1297.72 1302.78,1297.71C1305.6,1297.7 1308.59,1297.34 1311.64,1296.7C1328.43,1293.2 1347.54,1281.86 1355.01,1264.09C1356.04,1261.65 1356.72,1258.55 1357.05,1256.84C1353.83,1255.89 1343.56,1252.97 1338.07,1252.63C1326.66,1251.91 1317.34,1252.11 1315.44,1251.72L1307.31,1248.93L1300.07,1244.03L1294.65,1237.83L1291.17,1231.32C1287.93,1223.43 1286.83,1211.58 1290.24,1197.81C1299.47,1160.6 1342.94,1104.77 1405.34,1113.02C1419.18,1114.85 1428.93,1127.57 1427.1,1141.41C1425.27,1155.25 1412.55,1165 1398.71,1163.17C1376.48,1160.23 1359.67,1174.35 1349.4,1189.07C1346.75,1192.88 1344.45,1197.88 1342.67,1202.43C1350.66,1203.05 1359.69,1204.2 1367.04,1206.35C1381.92,1210.71 1394.47,1219.1 1401.53,1231.36C1404.44,1236.42 1406.68,1242.35 1407.55,1249.29C1421.88,1188.7 1448.61,1150.2 1474.13,1130.6C1497.26,1112.84 1520.85,1109.12 1539.01,1114.52C1565.11,1122.28 1588.03,1152.22 1578.33,1205.43C1592.97,1169.49 1612.33,1144.97 1631.03,1130.6C1654.16,1112.84 1677.75,1109.12 1695.92,1114.52C1724.61,1123.04 1749.45,1158.38 1731.36,1221.94C1727.53,1235.37 1713.53,1243.16 1700.11,1239.34C1694.96,1237.88 1690.64,1234.91 1687.48,1231.06C1688.92,1243.73 1680.59,1255.72 1667.87,1258.57L1666.8,1258.8C1653.18,1261.85 1639.65,1253.26 1636.6,1239.64C1633.55,1226.02 1642.14,1212.49 1655.76,1209.44L1656.83,1209.2C1666.44,1207.05 1676.02,1210.7 1681.89,1217.83C1681.53,1214.65 1681.78,1211.35 1682.7,1208.09C1686.35,1195.27 1687.71,1184.43 1686.82,1175.6C1686.33,1170.65 1685.4,1166.61 1683.03,1164.01C1681.43,1162.25 1678.9,1162.59 1676.28,1163.2C1671.2,1164.37 1665.9,1167.4 1660.47,1171.81C1641.36,1187.31 1623.4,1217.84 1613.01,1263.84C1609.96,1277.36 1609.49,1286.45 1614.02,1291.82C1618.93,1297.65 1628.06,1295.39 1634.55,1292.42C1647.24,1286.6 1662.27,1292.17 1668.09,1304.86C1673.91,1317.54 1668.34,1332.57 1655.65,1338.39C1629.91,1350.2 1594.84,1347.55 1575.35,1324.43C1563.6,1310.5 1555.75,1287.78 1563.67,1252.7C1565.32,1245.38 1567.15,1238.38 1569.14,1231.69C1562.89,1238.8 1552.89,1242.1 1543.2,1239.34C1538.05,1237.88 1533.73,1234.91 1530.58,1231.06C1532.01,1243.73 1523.68,1255.72 1510.96,1258.57L1509.9,1258.8C1496.27,1261.85 1482.74,1253.26 1479.69,1239.64C1476.65,1226.02 1485.23,1212.49 1498.86,1209.44L1499.92,1209.2C1509.54,1207.05 1519.11,1210.7 1524.98,1217.83C1524.62,1214.65 1524.87,1211.35 1525.8,1208.09C1529.44,1195.27 1530.8,1184.43 1529.92,1175.6C1529.42,1170.65 1528.49,1166.61 1526.13,1164.01C1524.52,1162.25 1522,1162.59 1519.38,1163.2C1514.3,1164.37 1509,1167.4 1503.56,1171.81C1484.45,1187.31 1466.49,1217.84 1456.11,1263.84C1453.05,1277.36 1452.59,1286.45 1457.11,1291.82C1462.02,1297.65 1471.16,1295.39 1477.64,1292.42C1490.33,1286.6 1505.36,1292.17 1511.18,1304.86C1517,1317.54 1511.43,1332.57 1498.74,1338.39C1473,1350.2 1437.93,1347.55 1418.44,1324.43C1409.9,1314.31 1403.43,1299.55 1403.56,1278.78C1402.98,1280.39 1402.34,1282.03 1401.64,1283.71C1384.79,1323.75 1337.88,1348.2 1302.92,1348.3C1284.14,1348.35 1268.49,1341.82 1258.56,1330.81L1253.1,1323.42L1249.13,1315C1247.43,1310.26 1246.35,1304.98 1246.13,1299.09C1244.91,1301.12 1243.67,1303.11 1242.41,1305.02C1231.43,1321.76 1218.63,1333.83 1206.13,1339.67C1180.3,1351.75 1145.09,1349.12 1125.52,1325.48C1121.82,1321 1118.5,1315.61 1115.96,1309.21ZM1232.34,1165.44C1232.56,1165.53 1232.79,1165.59 1233,1165.63L1233.09,1165.56L1232.34,1165.44ZM1228.46,1164.71C1225.93,1163.91 1220.69,1162.29 1214.35,1164.47C1207.45,1166.86 1200.16,1173.06 1192.49,1184.77C1181.78,1201.11 1171.75,1226.21 1163.36,1264.04C1160.23,1278.14 1159.85,1287.62 1164.49,1293.22C1169.33,1299.06 1178.33,1296.83 1184.71,1293.85C1191.94,1290.47 1197.95,1281.45 1204.01,1270.92C1216.21,1249.72 1225.56,1221.35 1229.07,1196.76C1230.73,1185.2 1229.13,1170.06 1228.46,1164.71ZM1224.78,1119.32C1216.67,1123.91 1212.75,1131.09 1212.75,1140.85C1212.75,1133.26 1216.16,1126.07 1222.05,1121.26C1222.92,1120.55 1223.83,1119.9 1224.78,1119.32Z" style="fill:white;"/>
            </g>
        </g>
    </g>
</svg>
