<?xml version="1.0" encoding="UTF-8" standalone="no"?>
<!DOCTYPE svg PUBLIC "-//W3C//DTD SVG 1.1//EN" "http://www.w3.org/Graphics/SVG/1.1/DTD/svg11.dtd">
<svg width="100%" height="100%" viewBox="0 0 407 284" version="1.1" xmlns="http://www.w3.org/2000/svg" xmlns:xlink="http://www.w3.org/1999/xlink" xml:space="preserve" xmlns:serif="http://www.serif.com/" style="fill-rule:evenodd;clip-rule:evenodd;stroke-linejoin:round;stroke-miterlimit:2;">
    <g transform="matrix(1,0,0,1,-1722.38,-1391.46)">
        <g transform="matrix(1.306,0,0,1.306,-598.601,-605.498)">
            <g transform="matrix(0.931369,0,0,0.859382,567.856,589.823)">
                <path d="M1464,1222.39C1457.75,1230.09 1447.75,1233.67 1438.05,1230.67C1432.91,1229.09 1428.59,1225.88 1425.43,1221.7C1426.87,1235.43 1418.54,1248.43 1405.82,1251.51L1404.75,1251.77C1391.13,1255.07 1377.6,1245.77 1374.55,1231C1371.5,1216.24 1380.09,1201.57 1393.71,1198.27L1394.77,1198.01C1404.39,1195.68 1413.97,1199.63 1419.84,1207.36C1419.48,1203.91 1419.72,1200.34 1420.65,1196.81C1424.3,1182.92 1425.66,1171.17 1424.77,1161.6C1424.28,1156.23 1423.35,1151.85 1420.98,1149.03C1419.38,1147.12 1416.85,1147.5 1414.23,1148.15C1409.15,1149.43 1403.85,1152.71 1398.42,1157.48C1379.31,1174.28 1361.35,1207.37 1350.96,1257.22C1347.91,1271.87 1347.44,1281.74 1351.97,1287.55C1356.88,1293.87 1366.01,1291.42 1372.5,1288.2C1385.19,1281.89 1400.21,1287.93 1406.04,1301.68C1411.86,1315.43 1406.28,1331.71 1393.6,1338.02C1367.86,1350.83 1332.79,1347.95 1313.3,1322.89C1301.55,1307.8 1293.7,1283.17 1301.62,1245.15C1315.74,1177.35 1342.99,1134.46 1368.98,1112.83C1392.11,1093.58 1415.7,1089.54 1433.87,1095.39C1459.97,1103.8 1482.89,1136.26 1473.18,1193.93C1487.83,1154.98 1507.18,1128.39 1525.89,1112.83C1549.02,1093.58 1572.61,1089.54 1590.77,1095.39C1619.46,1104.64 1644.31,1142.93 1626.21,1211.82C1622.39,1226.37 1608.39,1234.82 1594.96,1230.67C1589.81,1229.09 1585.49,1225.88 1582.34,1221.7C1583.77,1235.43 1575.44,1248.43 1562.72,1251.51L1561.66,1251.77C1548.04,1255.07 1534.5,1245.77 1531.46,1231C1528.41,1216.24 1537,1201.57 1550.62,1198.27L1551.68,1198.01C1561.3,1195.68 1570.88,1199.63 1576.75,1207.36C1576.39,1203.91 1576.63,1200.34 1577.56,1196.81C1581.21,1182.92 1582.57,1171.17 1581.68,1161.6C1581.18,1156.23 1580.26,1151.85 1577.89,1149.03C1576.28,1147.12 1573.76,1147.5 1571.14,1148.15C1566.06,1149.43 1560.76,1152.71 1555.33,1157.48C1536.22,1174.28 1518.26,1207.37 1507.87,1257.22C1504.82,1271.87 1504.35,1281.74 1508.87,1287.55C1513.79,1293.87 1522.92,1291.42 1529.41,1288.2C1542.09,1281.89 1557.12,1287.93 1562.94,1301.68C1568.77,1315.43 1563.19,1331.71 1550.5,1338.02C1524.76,1350.83 1489.7,1347.95 1470.2,1322.89C1458.46,1307.8 1450.6,1283.17 1458.53,1245.15C1460.18,1237.22 1462.01,1229.64 1464,1222.39Z" style="fill:white;"/>
            </g>
        </g>
    </g>
</svg>
